<svg width="24" height="24" viewBox="0 0 24 24" fill="none" xmlns="http://www.w3.org/2000/svg">
<g clip-path="url(#clip0)">
<path d="M12.6548 7.03616L23.5636 15.2179C24.0456 15.5795 24.1432 16.2632 23.7818 16.7452C23.4202 17.2272 22.7365 17.3249 22.2545 16.9634L12.0002 9.27251L1.74553 16.9634C1.26357 17.3249 0.57972 17.2272 0.218266 16.7452C0.0710678 16.549 1.33137e-05 16.3193 1.33038e-05 16.0915C1.32893e-05 15.7598 0.150703 15.4323 0.436447 15.2179L11.3458 7.03616C11.7336 6.74525 12.267 6.74525 12.6548 7.03616Z" fill="white"/>
</g>
<defs>
<clipPath id="clip0">
<rect width="24" height="24" fill="white" transform="matrix(-4.37114e-08 -1 -1 4.37114e-08 24 24)"/>
</clipPath>
</defs>
</svg>
