<svg width="23" height="21" viewBox="0 0 23 21" fill="none" xmlns="http://www.w3.org/2000/svg">
<g clip-path="url(#clip0)">
<path d="M15.93 2.0002C17.1359 2.00284 18.2917 2.48306 19.1444 3.33578C19.9971 4.1885 20.4774 5.34427 20.48 6.5502C20.48 8.5502 19.31 10.8302 17.01 13.2502C15.2591 15.032 13.325 16.6242 11.24 18.0002C9.15472 16.6245 7.22064 15.0324 5.47 13.2502C3.17 10.8402 2 8.5802 2 6.5502C2.00264 5.34427 2.48286 4.1885 3.33558 3.33578C4.1883 2.48306 5.34408 2.00284 6.55 2.0002C7.27007 1.99885 7.97994 2.17031 8.62 2.5002C9.06166 2.72723 9.46355 3.02442 9.81 3.3802L11.24 4.8402L12.67 3.3802C13.0165 3.02442 13.4183 2.72723 13.86 2.5002C14.5001 2.17031 15.2099 1.99885 15.93 2.0002ZM15.93 0.000196531C14.8874 -0.00792265 13.8583 0.235636 12.93 0.710196C12.3005 1.04574 11.7297 1.48143 11.24 2.0002C10.7439 1.48009 10.1663 1.04437 9.53 0.710196C8.60168 0.235636 7.57256 -0.00792265 6.53 0.000196531C4.79711 0.00811941 3.13776 0.701385 1.91428 1.92861C0.690812 3.15583 0.00262351 4.81729 0 6.5502C0 9.1102 1.35 11.8302 4 14.6302C6.06791 16.7197 8.3659 18.5681 10.85 20.1402L11.23 20.3802L11.61 20.1402C14.0943 18.5684 16.3923 16.7199 18.46 14.6302C21.13 11.8302 22.46 9.1102 22.46 6.5502C22.4574 4.81729 21.7692 3.15583 20.5457 1.92861C19.3222 0.701385 17.6629 0.00811941 15.93 0.000196531Z" fill="white"/>
</g>
<defs>
<clipPath id="clip0">
<rect width="22.48" height="20.39" fill="white"/>
</clipPath>
</defs>
</svg>
