<svg width="14" height="14" viewBox="0 0 14 14" fill="none" xmlns="http://www.w3.org/2000/svg">
<path d="M9.90679 12.4892L9.71118 13.2888C9.12433 13.5204 8.65556 13.6967 8.3065 13.8179C7.95705 13.9395 7.55102 14 7.08839 14C6.37796 14 5.82537 13.826 5.43126 13.4803C5.03715 13.1332 4.84003 12.6934 4.84003 12.1599C4.84003 11.9534 4.85433 11.741 4.88407 11.5245C4.91406 11.3078 4.96174 11.0638 5.02698 10.791L5.76038 8.1952C5.82563 7.94664 5.88108 7.71112 5.9255 7.48841C5.97055 7.26707 5.99225 7.06343 5.99225 6.88011C5.99225 6.54861 5.92362 6.31673 5.78698 6.18636C5.65034 6.05637 5.3896 5.99037 5.00252 5.99037C4.81292 5.99037 4.61806 6.02074 4.41944 6.07946C4.21993 6.13843 4.04942 6.1954 3.90625 6.24835L4.10237 5.44808C4.58281 5.25246 5.04204 5.08495 5.48132 4.94593C5.92061 4.80653 6.33568 4.73676 6.72828 4.73676C7.43382 4.73676 7.97826 4.90728 8.36058 5.24832C8.74289 5.58961 8.93399 6.03203 8.93399 6.57722C8.93399 6.69002 8.92144 6.88877 8.89447 7.17284C8.86812 7.45754 8.81906 7.7184 8.74754 7.95567L8.01728 10.5411C7.95743 10.7487 7.9036 10.9861 7.8568 11.2533C7.80849 11.5186 7.7854 11.7214 7.7854 11.8574C7.7854 12.2007 7.86194 12.4351 8.0154 12.5597C8.16998 12.6843 8.43624 12.7463 8.81441 12.7463C8.99196 12.7463 9.19397 12.7148 9.41845 12.6529C9.64229 12.5911 9.80553 12.5367 9.90679 12.4892ZM10.092 1.63492C10.092 2.08538 9.92222 2.47008 9.58106 2.7864C9.24077 3.10385 8.83073 3.2627 8.35104 3.2627C7.86985 3.2627 7.45879 3.10385 7.11462 2.7864C6.77107 2.46995 6.59892 2.08538 6.59892 1.63492C6.59892 1.18535 6.77107 0.800021 7.11462 0.479687C7.45817 0.159854 7.86997 0 8.35104 0C8.8306 0 9.24077 0.16023 9.58106 0.479687C9.92247 0.800021 10.092 1.18548 10.092 1.63492Z" fill="#D5D9E2"/>
</svg>
