<svg width="20" height="19" viewBox="0 0 20 19" fill="none" xmlns="http://www.w3.org/2000/svg">
<g clip-path="url(#clip0)">
<path d="M14.1726 1.77953C15.2455 1.78188 16.2738 2.20913 17.0324 2.96777C17.791 3.72642 18.2183 4.75469 18.2206 5.82758C18.2206 7.60694 17.1797 9.63541 15.1335 11.7884C13.5757 13.3737 11.855 14.7902 10 16.0144C8.14477 14.7905 6.42406 13.374 4.86655 11.7884C2.82028 9.6443 1.77936 7.63363 1.77936 5.82758C1.78171 4.75469 2.20895 3.72642 2.9676 2.96777C3.72625 2.20913 4.75452 1.78188 5.8274 1.77953C6.46803 1.77833 7.09959 1.93088 7.66904 2.22437C8.06197 2.42636 8.41953 2.69077 8.72776 3.00729L10 4.30622L11.2722 3.00729C11.5805 2.69077 11.938 2.42636 12.331 2.22437C12.9004 1.93088 13.532 1.77833 14.1726 1.77953ZM14.1726 0.00017485C13.2451 -0.00704862 12.3295 0.209641 11.5036 0.631847C10.9435 0.930375 10.4357 1.318 10 1.77953C9.55865 1.3168 9.04479 0.929152 8.47865 0.631847C7.65274 0.209641 6.73715 -0.00704862 5.80961 0.00017485C4.2679 0.00722367 2.7916 0.624008 1.7031 1.71584C0.614601 2.80767 0.00233408 4.28585 0 5.82758C0 8.10516 1.20107 10.5251 3.55872 13.0162C5.3985 14.8752 7.44297 16.5197 9.65303 17.9183L9.9911 18.1318L10.3292 17.9183C12.5394 16.5199 14.5839 14.8754 16.4235 13.0162C18.7989 10.5251 19.9822 8.10516 19.9822 5.82758C19.9799 4.28585 19.3676 2.80767 18.2791 1.71584C17.1906 0.624008 15.7143 0.00722367 14.1726 0.00017485Z" fill="#0E1017"/>
</g>
<defs>
<clipPath id="clip0">
<rect width="20" height="18.1406" fill="white"/>
</clipPath>
</defs>
</svg>
