<svg width="31" height="25" viewBox="0 0 31 25" fill="none" xmlns="http://www.w3.org/2000/svg">
<path d="M4.21174 1.36914H26.7572C27.5046 1.36914 28.2214 1.6618 28.7499 2.18273C29.2785 2.70367 29.5754 3.41021 29.5754 4.14692V20.8136C29.5754 21.5503 29.2785 22.2568 28.7499 22.7778C28.2214 23.2987 27.5046 23.5914 26.7572 23.5914H4.21174C3.46431 23.5914 2.74749 23.2987 2.21898 22.7778C1.69047 22.2568 1.39355 21.5503 1.39355 20.8136V4.14692C1.39355 3.41021 1.69047 2.70367 2.21898 2.18273C2.74749 1.6618 3.46431 1.36914 4.21174 1.36914V1.36914Z" stroke="#FE7B01" stroke-width="2" stroke-linecap="round" stroke-linejoin="round"/>
<path d="M29.5754 4.15234L15.4845 13.8746L1.39355 4.15234" stroke="#FE7B01" stroke-width="2" stroke-linecap="round" stroke-linejoin="round"/>
</svg>
