<svg width="28" height="33" viewBox="0 0 28 33" fill="none" xmlns="http://www.w3.org/2000/svg">
<path d="M26.6199 13.7295C26.6199 23.3545 14.0199 31.6045 14.0199 31.6045C14.0199 31.6045 1.41992 23.3545 1.41992 13.7295C1.41992 10.4474 2.74742 7.29981 5.11038 4.97905C7.47333 2.65828 10.6782 1.35449 14.0199 1.35449C17.3616 1.35449 20.5665 2.65828 22.9295 4.97905C25.2924 7.29981 26.6199 10.4474 26.6199 13.7295V13.7295Z" stroke="#FE7B01" stroke-width="2" stroke-linecap="round" stroke-linejoin="round"/>
<path d="M14.0398 17.8545C16.3594 17.8545 18.2398 16.0077 18.2398 13.7295C18.2398 11.4513 16.3594 9.60449 14.0398 9.60449C11.7202 9.60449 9.83984 11.4513 9.83984 13.7295C9.83984 16.0077 11.7202 17.8545 14.0398 17.8545Z" stroke="#FE7B01" stroke-width="2" stroke-linecap="round" stroke-linejoin="round"/>
</svg>
