<svg width="31" height="31" viewBox="0 0 31 31" fill="none" xmlns="http://www.w3.org/2000/svg">
<path d="M24.5007 19.2023C23.866 18.5415 23.1005 18.1882 22.2892 18.1882C21.4844 18.1882 20.7124 18.5349 20.0516 19.1957L17.9841 21.2567C17.814 21.1651 17.6438 21.0801 17.4803 20.995C17.2447 20.8772 17.0223 20.766 16.8325 20.6482C14.8959 19.4182 13.1359 17.8152 11.4479 15.7412C10.63 14.7074 10.0804 13.8372 9.68131 12.9539C10.2178 12.4632 10.7151 11.9529 11.1992 11.4622C11.3824 11.279 11.5656 11.0893 11.7488 10.9061C13.1228 9.53208 13.1228 7.75245 11.7488 6.37847L9.96264 4.5923C9.75982 4.38947 9.55045 4.1801 9.35417 3.97073C8.9616 3.56508 8.54941 3.14634 8.12413 2.75378C7.48948 2.12567 6.73052 1.79199 5.9323 1.79199C5.13409 1.79199 4.36204 2.12567 3.70776 2.75378C3.70122 2.76032 3.70122 2.76032 3.69468 2.76686L1.47014 5.01103C0.632666 5.84851 0.155044 6.86918 0.05036 8.05342C-0.106666 9.96391 0.456011 11.7435 0.887834 12.9081C1.94776 15.7673 3.53111 18.4172 5.89305 21.2567C8.75878 24.6786 12.2068 27.3807 16.1456 29.2847C17.6504 29.9979 19.659 30.8419 21.9032 30.9858C22.0406 30.9924 22.1845 30.9989 22.3154 30.9989C23.8268 30.9989 25.0961 30.4558 26.0906 29.3763C26.0971 29.3632 26.1102 29.3567 26.1167 29.3436C26.4569 28.9314 26.8495 28.5584 27.2617 28.1593C27.543 27.8911 27.8309 27.6097 28.1123 27.3153C28.76 26.6414 29.1002 25.8563 29.1002 25.0515C29.1002 24.2402 28.7535 23.4616 28.0926 22.8074L24.5007 19.2023ZM26.843 26.0918C26.8364 26.0918 26.8364 26.0984 26.843 26.0918C26.5878 26.3666 26.3261 26.6152 26.0448 26.89C25.6195 27.2957 25.1877 27.721 24.782 28.1986C24.1212 28.9052 23.3426 29.2389 22.3219 29.2389C22.2238 29.2389 22.1191 29.2389 22.021 29.2323C20.0778 29.108 18.272 28.3491 16.9176 27.7013C13.2144 25.9086 9.96265 23.3635 7.26048 20.1379C5.0294 17.4488 3.53765 14.9626 2.5497 12.2931C1.94122 10.664 1.71876 9.39469 1.81691 8.19736C1.88233 7.43186 2.17676 6.79721 2.71981 6.25416L4.95089 4.02308C5.27148 3.72211 5.61171 3.55854 5.94539 3.55854C6.35758 3.55854 6.69126 3.80716 6.90063 4.01653C6.90718 4.02308 6.91372 4.02962 6.92026 4.03616C7.31937 4.4091 7.69885 4.79512 8.09796 5.20732C8.30078 5.41668 8.51015 5.62605 8.71952 5.84196L10.5057 7.62814C11.1992 8.32167 11.1992 8.96286 10.5057 9.6564C10.316 9.84614 10.1328 10.0359 9.94302 10.2191C9.39342 10.7818 8.87 11.3052 8.30078 11.8155C8.2877 11.8286 8.27461 11.8351 8.26807 11.8482C7.70539 12.4109 7.81008 12.9605 7.92785 13.3334C7.93439 13.3531 7.94093 13.3727 7.94747 13.3923C8.41201 14.5177 9.06629 15.5776 10.0608 16.8404L10.0673 16.8469C11.8731 19.0714 13.7771 20.8053 15.8773 22.1334C16.1456 22.3036 16.4204 22.441 16.6821 22.5718C16.9176 22.6896 17.1401 22.8008 17.3298 22.9186C17.356 22.9317 17.3821 22.9513 17.4083 22.9644C17.6308 23.0756 17.8401 23.128 18.056 23.128C18.5991 23.128 18.9393 22.7877 19.0505 22.6765L21.2882 20.4389C21.5106 20.2164 21.8639 19.9482 22.2761 19.9482C22.6818 19.9482 23.0155 20.2033 23.2183 20.4258C23.2248 20.4323 23.2248 20.4323 23.2314 20.4389L26.8364 24.0439C27.5103 24.7113 27.5103 25.3983 26.843 26.0918Z" fill="#FE7B01"/>
<path d="M16.7554 7.37427C18.4696 7.66215 20.0268 8.47345 21.2699 9.71658C22.513 10.9597 23.3178 12.5169 23.6122 14.2311C23.6842 14.6629 24.0571 14.9639 24.4824 14.9639C24.5347 14.9639 24.5805 14.9573 24.6329 14.9508C25.117 14.8723 25.4376 14.4143 25.3591 13.9301C25.0058 11.8561 24.0244 9.9652 22.5261 8.46691C21.0278 6.96862 19.1369 5.9872 17.0629 5.6339C16.5787 5.55538 16.1273 5.87598 16.0422 6.3536C15.9571 6.83122 16.2712 7.29576 16.7554 7.37427Z" fill="#FE7B01"/>
<path d="M30.9656 13.6748C30.3832 10.2594 28.7737 7.15162 26.3006 4.67846C23.8274 2.20529 20.7196 0.595772 17.3043 0.013466C16.8266 -0.0715899 16.3752 0.255548 16.2901 0.73317C16.2116 1.21733 16.5322 1.66878 17.0164 1.75384C20.0653 2.27072 22.846 3.71667 25.0574 5.92158C27.2689 8.13303 28.7083 10.9137 29.2252 13.9626C29.2971 14.3945 29.6701 14.6954 30.0954 14.6954C30.1477 14.6954 30.1935 14.6889 30.2459 14.6823C30.7235 14.6104 31.0506 14.1524 30.9656 13.6748Z" fill="#FE7B01"/>
</svg>
