<svg width="28" height="28" viewBox="0 0 28 28" fill="none" xmlns="http://www.w3.org/2000/svg">
<g clip-path="url(#clip0)">
<path d="M14 28.0026H13.994C11.8098 28.0005 9.65631 27.4845 7.70492 26.4955L1.71992 27.8648C1.54012 27.9063 1.35282 27.9014 1.17544 27.8503C0.998052 27.7993 0.836349 27.7039 0.70537 27.573C0.57439 27.4421 0.478389 27.2799 0.426296 27.1015C0.374202 26.9232 0.36771 26.7344 0.407422 26.5528L1.70352 20.6127C0.591719 18.5395 0.00328125 16.2684 0 14.0172V13.994C0 10.2627 1.46563 6.7486 4.1218 4.09881C6.74638 1.47209 10.2951 -0.00169919 13.9937 -0.000976297C17.6922 -0.000253405 21.2404 1.47492 23.864 4.10267C26.5322 6.78333 28 10.3002 28 14.0051C28.0018 16.7995 27.1628 19.5288 25.5938 21.8326C25.4272 22.0672 25.1762 22.2266 24.8944 22.2768C24.6126 22.3269 24.3225 22.2637 24.0864 22.1008C23.8503 21.9379 23.6869 21.6882 23.6313 21.4052C23.5758 21.1223 23.6324 20.8287 23.7891 20.5874C25.1086 18.6497 25.8141 16.3542 25.8125 14.004C25.8125 10.89 24.5727 7.92824 22.3185 5.66432C21.2267 4.56342 19.9296 3.691 18.502 3.09727C17.0744 2.50355 15.5444 2.20023 14 2.20477C7.49602 2.20477 2.20117 7.48229 2.1875 13.9742V13.9951C2.1875 16.0044 2.7475 18.0418 3.80898 19.8867C3.94639 20.1256 3.98991 20.4076 3.93094 20.6772L2.91594 25.3291L7.61031 24.2542C7.86987 24.1948 8.142 24.2326 8.37594 24.3606C10.1015 25.3021 12.0324 25.7959 13.9945 25.7976H14C16.1327 25.7977 18.2257 25.2168 20.0577 24.1164C20.3069 23.9666 20.6049 23.9227 20.8862 23.9944C21.1675 24.0661 21.4089 24.2475 21.5575 24.4987C21.7061 24.7498 21.7497 25.0502 21.6785 25.3337C21.6074 25.6172 21.4275 25.8606 21.1783 26.0104C19.0073 27.3143 16.5271 28.0026 14 28.0026ZM10.9107 8.39073C10.6706 7.85493 10.4185 7.83674 10.1905 7.82737H9.57633C9.41421 7.83157 9.25471 7.86948 9.10781 7.93872C8.96091 8.00797 8.82979 8.10705 8.72266 8.22977C8.42898 8.55169 7.60156 9.33224 7.60156 10.9126C7.60156 12.493 8.75 14.0255 8.90914 14.2404C9.06828 14.4554 11.1251 17.8069 14.3779 19.0963C17.0833 20.1679 17.6334 19.9545 18.2208 19.9011C18.8081 19.8476 20.1157 19.1227 20.382 18.372C20.6484 17.6212 20.6489 16.9768 20.5691 16.8423C20.4892 16.7078 20.2754 16.6278 19.9555 16.4669C19.6355 16.3059 18.0671 15.5143 17.7734 15.4069C17.4798 15.2994 17.2665 15.2464 17.0527 15.5684C16.8388 15.8903 16.2105 16.6339 16.0234 16.8483C15.8364 17.0628 15.6499 17.0903 15.3295 16.9294C15.009 16.7684 13.9885 16.4222 12.7652 15.3264C11.813 14.4736 11.1524 13.386 10.9654 13.0663C10.7784 12.7466 10.9452 12.5702 11.1059 12.4098C11.2498 12.2659 11.4445 12.0686 11.6047 11.8812C11.7649 11.6937 11.8103 11.5592 11.917 11.3442C12.0236 11.1293 11.9716 10.9418 11.8902 10.7809C11.8087 10.6199 11.1951 9.02906 10.9107 8.39293" fill="#FE7B01"/>
</g>
<defs>
<clipPath id="clip0">
<rect width="28" height="28" fill="white"/>
</clipPath>
</defs>
</svg>
